{
	"asset":{
		"generator":"Khronos glTF Blender I/O v4.3.47",
		"version":"2.0"
	},
	"extensionsUsed":[
		"KHR_materials_specular"
	],
	"scene":0,
	"scenes":[
		{
			"name":"Scene",
			"nodes":[
				0
			]
		}
	],
	"nodes":[
		{
			"mesh":0,
			"name":"bamboo_tree",
			"rotation":[
				0.7071068286895752,
				0,
				0,
				0.7071068286895752
			],
			"scale":[
				0.009999999776482582,
				0.009999999776482582,
				0.009999999776482582
			]
		}
	],
	"materials":[
		{
			"doubleSided":true,
			"extensions":{},
			"name":"Trunk",
			"pbrMetallicRoughness":{
				"metallicFactor":0,
				"roughnessFactor":0.4343145787715912
			}
		},
		{
			"doubleSided":true,
			"extensions":{
				"KHR_materials_specular":{
					"specularColorFactor":[
						2.0,
						2.0,
						2.0
					]
				}
			},
			"name":"Mf_Grass",
			"pbrMetallicRoughness":{
				"roughnessFactor":0.5527864098548889
			}
		},
		{
			"doubleSided":true,
			"extensions":{},
			"name":"Leaf",
			"pbrMetallicRoughness":{
				"metallicFactor":0,
				"roughnessFactor":0.4343145787715912
			}
		}
	],
	"meshes":[
		{
			"name":"Mesh",
			"primitives":[
				{
					"attributes":{
						"POSITION":0,
						"NORMAL":1,
						"TEXCOORD_0":2
					},
					"indices":3,
					"material":0
				},
				{
					"attributes":{
						"POSITION":4,
						"NORMAL":5,
						"TEXCOORD_0":6
					},
					"indices":7,
					"material":1
				},
				{
					"attributes":{
						"POSITION":8,
						"NORMAL":9,
						"TEXCOORD_0":10
					},
					"indices":11,
					"material":2
				}
			]
		}
	],
	"accessors":[
		{
			"bufferView":0,
			"componentType":5126,
			"count":30817,
			"max":[
				129.92608642578125,
				115.9522933959961,
				0.1423647701740265
			],
			"min":[
				-122.79891204833984,
				-118.95939636230469,
				-425.29034423828125
			],
			"type":"VEC3"
		},
		{
			"bufferView":1,
			"componentType":5126,
			"count":30817,
			"type":"VEC3"
		},
		{
			"bufferView":2,
			"componentType":5126,
			"count":30817,
			"type":"VEC2"
		},
		{
			"bufferView":3,
			"componentType":5123,
			"count":131376,
			"type":"SCALAR"
		},
		{
			"bufferView":4,
			"componentType":5126,
			"count":20197,
			"max":[
				49.20248031616211,
				49.17882537841797,
				0.03573208302259445
			],
			"min":[
				-47.64198684692383,
				-50.894378662109375,
				-53.395076751708984
			],
			"type":"VEC3"
		},
		{
			"bufferView":5,
			"componentType":5126,
			"count":20197,
			"type":"VEC3"
		},
		{
			"bufferView":6,
			"componentType":5126,
			"count":20197,
			"type":"VEC2"
		},
		{
			"bufferView":7,
			"componentType":5123,
			"count":56367,
			"type":"SCALAR"
		},
		{
			"bufferView":8,
			"componentType":5126,
			"count":129874,
			"max":[
				154.6553192138672,
				147.3607177734375,
				-183.3174591064453
			],
			"min":[
				-157.82339477539062,
				-143.52334594726562,
				-430.5274658203125
			],
			"type":"VEC3"
		},
		{
			"bufferView":9,
			"componentType":5126,
			"count":129874,
			"type":"VEC3"
		},
		{
			"bufferView":10,
			"componentType":5126,
			"count":129874,
			"type":"VEC2"
		},
		{
			"bufferView":11,
			"componentType":5125,
			"count":367080,
			"type":"SCALAR"
		}
	],
	"bufferViews":[
		{
			"buffer":0,
			"byteLength":369804,
			"byteOffset":0,
			"target":34962
		},
		{
			"buffer":0,
			"byteLength":369804,
			"byteOffset":369804,
			"target":34962
		},
		{
			"buffer":0,
			"byteLength":246536,
			"byteOffset":739608,
			"target":34962
		},
		{
			"buffer":0,
			"byteLength":262752,
			"byteOffset":986144,
			"target":34963
		},
		{
			"buffer":0,
			"byteLength":242364,
			"byteOffset":1248896,
			"target":34962
		},
		{
			"buffer":0,
			"byteLength":242364,
			"byteOffset":1491260,
			"target":34962
		},
		{
			"buffer":0,
			"byteLength":161576,
			"byteOffset":1733624,
			"target":34962
		},
		{
			"buffer":0,
			"byteLength":112734,
			"byteOffset":1895200,
			"target":34963
		},
		{
			"buffer":0,
			"byteLength":1558488,
			"byteOffset":2007936,
			"target":34962
		},
		{
			"buffer":0,
			"byteLength":1558488,
			"byteOffset":3566424,
			"target":34962
		},
		{
			"buffer":0,
			"byteLength":1038992,
			"byteOffset":5124912,
			"target":34962
		},
		{
			"buffer":0,
			"byteLength":1468320,
			"byteOffset":6163904,
			"target":34963
		}
	],
	"buffers":[
		{
			"byteLength":7632224,
			"uri":"bamboo.bin"
		}
	]
}
